<svg xmlns="http://www.w3.org/2000/svg" viewBox="0 0 24 24" fill="#34d399">
  <path d="M11.38 2.019a7.5 7.5 0 1 0 10.6 10.6A9.996 9.996 0 0 1 12.001 22C6.477 22 2 17.523 2 12c0-5.185 3.947-9.449 9.001-9.95a7.48 7.48 0 0 0 .38-.031zM17.5 11a5.5 5.5 0 1 1 0-11 5.5 5.5 0 0 1 0 11zm-1.61-2.93a.53.53 0 0 0 .74 0l1.06-1.06c.2-.2.2-.53 0-.73l-1.06-1.06a.52.52 0 0 0-.74 0 .52.52 0 0 0 0 .73l.33.33h-1.95c-.29 0-.53.24-.53.53v2.07c0 .29.24.53.53.53.29 0 .53-.24.53-.53v-1.54l1.09 1.09c.2.2.53.2.73 0zm-3.28 0 1.09-1.09v1.54c0 .29.24.53.53.53.29 0 .53-.24.53-.53V8.41c0-.29-.24-.53-.53-.53h-1.95l.33-.33a.52.52 0 0 0 0-.73.52.52 0 0 0-.74 0L11.02 7.88c-.2.2-.2.53 0 .73l1.06 1.06c.2.2.54.2.74 0z" />
</svg>